<?xml version="1.0" encoding="UTF-8"?>
<svg version="1.1" xmlns="http://www.w3.org/2000/svg" width="256" height="256">
<path d="M0 0 C22.18332835 18.76727779 37.16154596 45.45503456 40.05859375 74.62109375 C42.27787254 106.20765437 33.68297136 134.55931987 13.05859375 158.62109375 C12.28515625 159.61109375 12.28515625 159.61109375 11.49609375 160.62109375 C-2.06521999 177.43712279 -23.20398436 187.8841855 -43.62890625 193.37109375 C-44.41289795 193.58209717 -45.19688965 193.79310059 -46.00463867 194.01049805 C-72.94014166 200.90782082 -102.55276093 195.48870576 -126.47265625 181.7578125 C-131.95064228 178.46341257 -136.99019419 174.65514931 -141.94140625 170.62109375 C-143.10736328 169.70263672 -143.10736328 169.70263672 -144.296875 168.765625 C-164.82906584 151.72208959 -177.77810855 124.12907962 -180.75610352 97.8737793 C-183.48316713 64.72145264 -174.7426329 37.49591951 -153.59765625 11.76953125 C-135.76658872 -8.78251087 -111.48562228 -20.15680509 -84.94140625 -24.37890625 C-84.26408447 -24.48855713 -83.5867627 -24.59820801 -82.88891602 -24.71118164 C-53.9152415 -28.9078154 -22.36782952 -18.29843907 0 0 Z M-141.94140625 17.62109375 C-162.08807759 39.8285031 -170.17003948 65.9886219 -169.32421875 95.6796875 C-168.66498087 108.67994132 -165.05719221 120.11337089 -158.94140625 131.62109375 C-158.42835938 132.61496094 -157.9153125 133.60882813 -157.38671875 134.6328125 C-144.74438403 157.77009974 -123.05655012 174.28654256 -97.94140625 181.87109375 C-71.00850541 189.02142141 -43.94129145 185.67934007 -19.7578125 171.94921875 C-14.73980571 168.96627195 -10.29893936 165.49618569 -5.94140625 161.62109375 C-4.82765625 160.72003906 -4.82765625 160.72003906 -3.69140625 159.80078125 C13.83010484 145.26036059 25.17099805 122.01612237 28.05859375 99.62109375 C28.3443895 95.17935148 28.39309716 90.75862681 28.37109375 86.30859375 C28.36263428 84.51748169 28.36263428 84.51748169 28.35400391 82.69018555 C28.23773755 74.25742136 27.68079783 66.68635782 25.05859375 58.62109375 C24.76855469 57.69393555 24.76855469 57.69393555 24.47265625 56.74804688 C19.33330035 40.61617976 11.07379626 27.48247432 -0.94140625 15.62109375 C-1.75480469 14.80898438 -2.56820312 13.996875 -3.40625 13.16015625 C-23.16324389 -5.60418479 -48.68736479 -12.90971262 -75.2890625 -12.58984375 C-100.64711263 -11.90254174 -124.26752933 -0.32330169 -141.94140625 17.62109375 Z " fill="currentColor" transform="translate(198.94140625,42.37890625)"/>
<path d="M0 0 C5.90072068 3.49626901 10.0992791 8.74711187 12.21875 15.26953125 C13.40863082 21.61937603 12.13819475 28.0253814 8.96875 33.6171875 C5.09514816 38.86456673 0.45282411 41.5508201 -5.875 42.9375 C-12.37815103 43.81897829 -16.83228454 42.85555285 -22.625 39.625 C-28.09658598 35.27260206 -31.65689483 30.07396164 -32.734375 23.1171875 C-33.11807539 16.31716394 -31.34906974 10.96126679 -27.375 5.4375 C-19.92541743 -1.70772219 -9.79909314 -4.43517948 0 0 Z " fill="currentColor" transform="translate(138.375,107.5625)"/>
</svg>
