<?xml version="1.0" encoding="UTF-8"?>
<svg version="1.1" xmlns="http://www.w3.org/2000/svg" width="256" height="256">
<path d="M0 0 C7.90952666 6.62937205 14.18987051 13.80573943 15.23828125 24.41015625 C15.66809516 39.77034817 7.50508712 51.69860039 -2.66137695 62.57202148 C-19.4856937 80.12471329 -19.4856937 80.12471329 -28.9375 81.625 C-34.12472024 81.32573729 -37.2423748 78.3147112 -41 75 C-41.69867188 74.443125 -42.39734375 73.88625 -43.1171875 73.3125 C-54.72008921 63.73288008 -66.18961717 49.40965714 -68.8125 34.2734375 C-69.69857406 23.52978948 -66.55633426 15.16416782 -59.875 6.8125 C-44.2736865 -9.94195407 -18.99437146 -12.70324206 0 0 Z " fill="currentColor" transform="translate(159,8)"/>
<path d="M0 0 C6.65503199 5.70841106 9.52643827 13.24505366 10.3828125 21.84375 C10.96804644 35.02499463 7.60475176 45.89580635 -1 56 C-9.39136711 65.02587502 -19.69090204 70.02822911 -32 71 C-42.09989406 71.22298467 -50.23310191 68.67032243 -57.8125 61.875 C-67.88639822 50.96953 -69.28961572 34.8867658 -69.15625 20.75 C-68.97228311 16.33479455 -68.63010903 11.9586057 -68.1875 7.5625 C-68.08248169 6.42663452 -68.08248169 6.42663452 -67.9753418 5.26782227 C-67.32606281 -0.56921522 -65.95451273 -5.09692181 -61.625 -9.3125 C-45.88710224 -19.42971999 -13.60380654 -10.05709983 0 0 Z " fill="currentColor" transform="translate(226,167)"/>
<path d="M0 0 C4.16074615 4.09892228 4.70653425 8.32444889 4.87890625 13.96484375 C4.44159116 31.94942691 1.80838207 51.16452095 -10.62890625 65.01953125 C-19.32373111 72.8565707 -29.11122759 73.24748128 -40.24267578 72.76464844 C-52.52545264 71.75587713 -62.84265172 64.28377748 -70.61328125 55.12890625 C-78.07180314 44.35548574 -79.51097736 32.32561783 -78.37109375 19.58984375 C-76.42938357 11.13707282 -72.02092329 5.1102635 -64.74609375 0.40234375 C-49.80213078 -8.04232172 -14.61453484 -11.62122272 0 0 Z " fill="currentColor" transform="translate(94.37109375,156.41015625)"/>
<path d="M0 0 C7.98797176 5.84154397 14.77160665 13.51872225 16.484375 23.4921875 C17.64246316 34.34438443 15.92679177 42.96927238 9.7578125 52.02734375 C4.45105083 58.56798211 -3.06451204 63.9951332 -11.515625 65.4921875 C-23.00535989 66.45360565 -32.70412526 64.52165866 -41.73828125 57.11328125 C-48.73858991 50.72838434 -53.73378902 42.62923308 -54.7890625 32.99609375 C-55.15729992 22.33137146 -52.17550364 14.24968853 -45.328125 6.0546875 C-40.9264735 1.48430602 -36.38147964 -1.1957975 -30.515625 -3.5078125 C-29.525625 -3.9409375 -28.535625 -4.3740625 -27.515625 -4.8203125 C-17.83120889 -7.03965786 -8.50172268 -5.09575304 0 0 Z " fill="currentColor" transform="translate(147.515625,98.5078125)"/>
</svg>
