<?xml version="1.0" encoding="UTF-8"?>
<svg version="1.1" xmlns="http://www.w3.org/2000/svg" width="256" height="256">
<path d="M0 0 C7.90952666 6.62937205 14.18987051 13.80573943 15.23828125 24.41015625 C15.66809516 39.77034817 7.50508712 51.69860039 -2.66137695 62.57202148 C-19.4856937 80.12471329 -19.4856937 80.12471329 -28.9375 81.625 C-34.12472024 81.32573729 -37.2423748 78.3147112 -41 75 C-41.69867188 74.443125 -42.39734375 73.88625 -43.1171875 73.3125 C-54.72008921 63.73288008 -66.18961717 49.40965714 -68.8125 34.2734375 C-69.69857406 23.52978948 -66.55633426 15.16416782 -59.875 6.8125 C-44.2736865 -9.94195407 -18.99437146 -12.70324206 0 0 Z " fill="currentColor" transform="translate(159,8)"/>
<path d="M0 0 C18.81740939 17.34683035 18.81740939 17.34683035 19.9375 25.625 C20.040625 26.23214844 20.14375 26.83929688 20.25 27.46484375 C18.64406418 38.88706229 4.89817301 49.23097701 -3.70605469 55.94189453 C-14.14793463 63.71452949 -24.99494773 67.83292742 -38.0625 66.6875 C-48.90115069 63.97007325 -57.21357244 57.06570746 -63.0625 47.6875 C-68.94805358 35.59702172 -71.52045475 23.4931589 -67.4375 10.3125 C-63.51639569 0.08472443 -56.59727548 -10.00307969 -46.4375 -14.75 C-28.19259206 -21.77444496 -13.46558176 -11.75867703 0 0 Z " fill="currentColor" transform="translate(72.0625,101.3125)"/>
<path d="M0 0 C9.77969448 6.98785602 16.32844499 17.72262173 18.625 29.52734375 C19.7243298 44.52148138 16.52043298 56.16299301 6.77734375 67.71875 C0.69192453 74.28809917 -6.06100427 77.946793 -15.0703125 78.5546875 C-30.30850462 78.37389539 -41.68716893 69.36734206 -52.375 59.52734375 C-53.1278125 58.84542969 -53.880625 58.16351563 -54.65625 57.4609375 C-69.05903898 43.77257258 -69.05903898 43.77257258 -70.6875 35.21484375 C-69.79903113 24.7309111 -59.55896339 16.10551594 -52 9.51953125 C-36.71754405 -3.24445147 -18.51096479 -11.478016 0 0 Z " fill="currentColor" transform="translate(235.375,92.47265625)"/>
<path d="M0 0 C3.00540486 1.63389074 5.4422684 3.74375007 8 6 C8.69867188 6.556875 9.39734375 7.11375 10.1171875 7.6875 C21.72008921 17.26711992 33.18961717 31.59034286 35.8125 46.7265625 C36.69857406 57.47021052 33.55633426 65.83583218 26.875 74.1875 C19.40457955 82.21008196 9.16235849 87.82988281 -1.8671875 88.43359375 C-3.53629544 88.45694942 -5.20585201 88.45779261 -6.875 88.4375 C-8.18936035 88.42614014 -8.18936035 88.42614014 -9.53027344 88.41455078 C-20.14900654 88.14484992 -28.03996893 85.03248508 -36 78 C-36.6290625 77.45214844 -37.258125 76.90429688 -37.90625 76.33984375 C-43.74847821 70.90607641 -47.44539966 64.60964608 -48.23828125 56.58984375 C-48.66809516 41.22965183 -40.50508712 29.30139961 -30.33862305 18.42797852 C-10.22513416 -2.55628354 -10.22513416 -2.55628354 0 0 Z " fill="currentColor" transform="translate(136,168)"/>
<path d="M0 0 C7.98797176 5.84154397 14.77160665 13.51872225 16.484375 23.4921875 C17.64246316 34.34438443 15.92679177 42.96927238 9.7578125 52.02734375 C4.45105083 58.56798211 -3.06451204 63.9951332 -11.515625 65.4921875 C-23.00535989 66.45360565 -32.70412526 64.52165866 -41.73828125 57.11328125 C-48.73858991 50.72838434 -53.73378902 42.62923308 -54.7890625 32.99609375 C-55.15729992 22.33137146 -52.17550364 14.24968853 -45.328125 6.0546875 C-40.9264735 1.48430602 -36.38147964 -1.1957975 -30.515625 -3.5078125 C-29.525625 -3.9409375 -28.535625 -4.3740625 -27.515625 -4.8203125 C-17.83120889 -7.03965786 -8.50172268 -5.09575304 0 0 Z " fill="currentColor" transform="translate(147.515625,98.5078125)"/>
</svg>
