<?xml version="1.0" encoding="UTF-8"?>
<svg version="1.1" xmlns="http://www.w3.org/2000/svg" width="256" height="256">
<path d="M0 0 C7.90952666 6.62937205 14.18987051 13.80573943 15.23828125 24.41015625 C15.66809516 39.77034817 7.50508712 51.69860039 -2.66137695 62.57202148 C-19.4856937 80.12471329 -19.4856937 80.12471329 -28.9375 81.625 C-34.12472024 81.32573729 -37.2423748 78.3147112 -41 75 C-41.69867188 74.443125 -42.39734375 73.88625 -43.1171875 73.3125 C-54.72008921 63.73288008 -66.18961717 49.40965714 -68.8125 34.2734375 C-69.69857406 23.52978948 -66.55633426 15.16416782 -59.875 6.8125 C-44.2736865 -9.94195407 -18.99437146 -12.70324206 0 0 Z " fill="currentColor" transform="translate(159,8)"/>
<path d="M0 0 C8.88336227 8.37574157 10.23294302 27.61753343 10.66455078 39.22705078 C10.77383389 50.05072914 9.12148739 60.80506276 1.9453125 69.3515625 C-7.17207676 78.22582138 -16.81669851 80.53457797 -29.14819336 80.4140625 C-41.73861119 80.03701765 -51.89518153 75.51927875 -60.625 66.3125 C-68.47366681 57.07714295 -72.41829034 46.97040047 -72.1171875 34.859375 C-71.14388389 25.92494696 -66.60303918 18.79719315 -59.8125 13.0625 C-44.39725132 2.59675519 -18.29217565 -6.09739188 0 0 Z " fill="currentColor" transform="translate(103.8125,163.9375)"/>
<path d="M0 0 C13.9252698 11.1457199 22.55345774 30.40224203 26.9375 47.375 C27.34186519 51.06920052 27.08748497 52.74346853 25.9375 56.375 C22.23190473 60.73289107 18.1203217 63.2761789 13.125 65.875 C12.38596436 66.26300781 11.64692871 66.65101563 10.88549805 67.05078125 C-2.68915971 73.94547949 -18.99883185 79.27192147 -34.1875 75.25 C-43.44612459 72.07561443 -49.50677579 67.02809812 -54.0625 58.375 C-59.96696339 45.82801529 -60.82902185 33.62489618 -56.3203125 20.4140625 C-51.46342306 8.67909361 -43.12867051 0.89091267 -31.796875 -4.49609375 C-20.3468277 -9.22332756 -9.89797458 -6.76521757 0 0 Z " fill="currentColor" transform="translate(65.0625,65.625)"/>
<path d="M0 0 C10.9193825 6.86834683 18.41395141 16.05210133 21.56640625 28.64453125 C21.97976222 31.94938215 22.04468236 35.19162283 22.00390625 38.51953125 C21.99560791 39.39649658 21.98730957 40.27346191 21.97875977 41.17700195 C21.72137089 51.06494816 19.14343524 58.95075664 12.7578125 66.6328125 C5.69536672 73.11616291 -3.4408025 76.03552349 -12.9296875 75.85546875 C-24.73407598 74.86102729 -35.60604687 71.24503084 -46.43359375 66.64453125 C-47.08875977 66.37092773 -47.74392578 66.09732422 -48.41894531 65.81542969 C-55.0594074 62.98653328 -61.11160758 60.34011688 -64.9296875 53.9296875 C-66.38521445 47.32904202 -63.66725475 40.63236906 -61.37109375 34.51953125 C-61.06236328 33.69348389 -60.75363281 32.86743652 -60.43554688 32.01635742 C-54.90964 17.7046462 -47.42131523 4.07624791 -33.43359375 -3.35546875 C-22.08203661 -7.88368553 -10.41333666 -5.80004466 0 0 Z " fill="currentColor" transform="translate(234.43359375,71.35546875)"/>
<path d="M0 0 C10.22020177 5.24329098 18.55119163 11.81043365 22.23046875 23.109375 C24.4534313 35.17059755 22.08710124 46.44637248 15.3125 56.5625 C14.1111844 58.14651319 12.8831657 59.71075473 11.625 61.25 C11.10164063 61.89839844 10.57828125 62.54679687 10.0390625 63.21484375 C2.65175715 71.44898655 -8.15683601 75.57436619 -18.98828125 76.46484375 C-29.65401332 76.84199128 -39.20370911 74.29037149 -47.375 67.25 C-55.21611028 59.11720728 -57.375 49.30553618 -57.375 38.25 C-56.67107076 27.55907462 -54.49704198 17.4999393 -51.375 7.25 C-51.065625 6.19167969 -50.75625 5.13335937 -50.4375 4.04296875 C-48.50369795 -1.97599014 -46.75351471 -5.31690551 -41.375 -8.75 C-29.3779543 -12.74901523 -10.85078306 -5.29960376 0 0 Z " fill="currentColor" transform="translate(200.375,173.75)"/>
<path d="M0 0 C7.98797176 5.84154397 14.77160665 13.51872225 16.484375 23.4921875 C17.64246316 34.34438443 15.92679177 42.96927238 9.7578125 52.02734375 C4.45105083 58.56798211 -3.06451204 63.9951332 -11.515625 65.4921875 C-23.00535989 66.45360565 -32.70412526 64.52165866 -41.73828125 57.11328125 C-48.73858991 50.72838434 -53.73378902 42.62923308 -54.7890625 32.99609375 C-55.15729992 22.33137146 -52.17550364 14.24968853 -45.328125 6.0546875 C-40.9264735 1.48430602 -36.38147964 -1.1957975 -30.515625 -3.5078125 C-29.525625 -3.9409375 -28.535625 -4.3740625 -27.515625 -4.8203125 C-17.83120889 -7.03965786 -8.50172268 -5.09575304 0 0 Z " fill="currentColor" transform="translate(147.515625,98.5078125)"/>
</svg>
