<?xml version="1.0" encoding="UTF-8"?>
<svg version="1.1" xmlns="http://www.w3.org/2000/svg" width="256" height="256">
<path d="M0 0 C7.90952666 6.62937205 14.18987051 13.80573943 15.23828125 24.41015625 C15.66809516 39.77034817 7.50508712 51.69860039 -2.66137695 62.57202148 C-19.4856937 80.12471329 -19.4856937 80.12471329 -28.9375 81.625 C-34.12472024 81.32573729 -37.2423748 78.3147112 -41 75 C-41.69867188 74.443125 -42.39734375 73.88625 -43.1171875 73.3125 C-54.72008921 63.73288008 -66.18961717 49.40965714 -68.8125 34.2734375 C-69.69857406 23.52978948 -66.55633426 15.16416782 -59.875 6.8125 C-44.2736865 -9.94195407 -18.99437146 -12.70324206 0 0 Z " fill="currentColor" transform="translate(159,8)"/>
<path d="M0 0 C1.56450632 1.19996116 3.1081064 2.42788871 4.625 3.6875 C5.59566406 4.47253906 5.59566406 4.47253906 6.5859375 5.2734375 C14.55408618 12.40649636 18.97544833 23.09586487 19.875 33.609375 C20.25243048 43.46974639 18.59566682 54.32578415 12.1484375 62.19921875 C4.28156596 69.8845471 -5.21439591 72.70585 -16.0625 73.0625 C-27.98241397 72.67649242 -39.30299881 69.95910535 -50.625 66.375 C-51.51823975 66.10357178 -52.41147949 65.83214355 -53.33178711 65.55249023 C-59.04630471 63.64692407 -62.20388737 61.89446693 -65.375 56.6875 C-66.91570585 51.07351172 -66.05885384 46.30245794 -64.8125 40.75 C-64.63050049 39.92314697 -64.44850098 39.09629395 -64.26098633 38.24438477 C-60.36185088 21.37290808 -54.01516047 5.8625718 -39.17578125 -4.2421875 C-27.27033753 -11.31830806 -10.79965378 -7.26522164 0 0 Z " fill="currentColor" transform="translate(233.375,51.3125)"/>
<path d="M0 0 C5.77572501 4.90162104 8.78218089 10.60347418 11.0390625 17.73046875 C11.22339844 18.31054688 11.40773438 18.890625 11.59765625 19.48828125 C14.2240896 32.82963293 11.30384396 45.42969759 4.0390625 56.73046875 C-2.40631785 65.93815496 -12.64948184 71.82998346 -23.5234375 74.31640625 C-32.37733921 75.82043443 -40.81027593 74.22625653 -48.2109375 69.04296875 C-62.18343338 57.60070351 -67.43997957 37.8964913 -69.6796875 20.66796875 C-70.95253685 7.37376439 -70.95253685 7.37376439 -66.9609375 1.73046875 C-49.64805854 -10.13430145 -17.36330503 -12.42427303 0 0 Z " fill="currentColor" transform="translate(232.9609375,145.26953125)"/>
<path d="M0 0 C1.10021484 0.36085693 1.10021484 0.36085693 2.22265625 0.72900391 C8.09225273 2.75778416 14.15070197 4.97724881 17.875 10.1875 C22.07996372 18.87047702 16.9697269 31.10976407 14.18896484 39.74316406 C9.4934183 53.12279577 2.38654438 65.64270794 -10.6796875 72.22265625 C-18.54916003 75.62011929 -29.3369299 75.22361348 -37.4375 72.5625 C-50.32331216 67.07050476 -59.3541274 57.89592893 -64.625 45.0625 C-68.12309847 34.73944016 -68.27037183 22.49460211 -63.875 12.421875 C-59.33552857 3.85362268 -53.51867483 -1.71097148 -44.109375 -4.75 C-29.30466308 -8.10201025 -14.14301944 -4.65863555 0 0 Z " fill="currentColor" transform="translate(75.625,141.9375)"/>
<path d="M0 0 C3.00540486 1.63389074 5.4422684 3.74375007 8 6 C8.69867188 6.556875 9.39734375 7.11375 10.1171875 7.6875 C21.72008921 17.26711992 33.18961717 31.59034286 35.8125 46.7265625 C36.69857406 57.47021052 33.55633426 65.83583218 26.875 74.1875 C19.40457955 82.21008196 9.16235849 87.82988281 -1.8671875 88.43359375 C-3.53629544 88.45694942 -5.20585201 88.45779261 -6.875 88.4375 C-8.18936035 88.42614014 -8.18936035 88.42614014 -9.53027344 88.41455078 C-20.14900654 88.14484992 -28.03996893 85.03248508 -36 78 C-36.6290625 77.45214844 -37.258125 76.90429688 -37.90625 76.33984375 C-43.74847821 70.90607641 -47.44539966 64.60964608 -48.23828125 56.58984375 C-48.66809516 41.22965183 -40.50508712 29.30139961 -30.33862305 18.42797852 C-10.22513416 -2.55628354 -10.22513416 -2.55628354 0 0 Z " fill="currentColor" transform="translate(136,168)"/>
<path d="M0 0 C0.94875 0.7425 1.8975 1.485 2.875 2.25 C3.41640625 2.6625 3.9578125 3.075 4.515625 3.5 C15.06945619 12.62763779 19.34578729 28.24763739 22.875 41.25 C23.12121094 42.11367187 23.36742188 42.97734375 23.62109375 43.8671875 C25.39518355 50.74331487 25.66774218 57.68266018 24.125 64.625 C20.2955878 69.09264757 15.36375147 70.43951413 9.875 72.25 C9.1934082 72.48138672 8.51181641 72.71277344 7.80957031 72.95117188 C-6.7175523 77.76095944 -25.46026448 81.23541013 -39.94140625 74.5625 C-49.04455201 69.09084173 -54.76349156 61.21292078 -57.5 50.875 C-59.62543311 38.43236031 -58.16618788 26.25515719 -51.375 15.4375 C-39.16992063 -1.1395481 -19.22871606 -10.76808099 0 0 Z " fill="currentColor" transform="translate(71.125,45.75)"/>
<path d="M0 0 C7.98797176 5.84154397 14.77160665 13.51872225 16.484375 23.4921875 C17.64246316 34.34438443 15.92679177 42.96927238 9.7578125 52.02734375 C4.45105083 58.56798211 -3.06451204 63.9951332 -11.515625 65.4921875 C-23.00535989 66.45360565 -32.70412526 64.52165866 -41.73828125 57.11328125 C-48.73858991 50.72838434 -53.73378902 42.62923308 -54.7890625 32.99609375 C-55.15729992 22.33137146 -52.17550364 14.24968853 -45.328125 6.0546875 C-40.9264735 1.48430602 -36.38147964 -1.1957975 -30.515625 -3.5078125 C-29.525625 -3.9409375 -28.535625 -4.3740625 -27.515625 -4.8203125 C-17.83120889 -7.03965786 -8.50172268 -5.09575304 0 0 Z " fill="currentColor" transform="translate(147.515625,98.5078125)"/>
</svg>
